<svg width="781" height="301" viewBox="0 0 781 301" fill="none" xmlns="http://www.w3.org/2000/svg">
<path d="M61 93.3636C60.5152 89.0606 58.5152 85.7273 55 83.3636C51.4849 80.9697 47.0606 79.7727 41.7273 79.7727C37.9091 79.7727 34.6061 80.3788 31.8182 81.5909C29.0303 82.7727 26.8636 84.4091 25.3182 86.5C23.803 88.5606 23.0455 90.9091 23.0455 93.5454C23.0455 95.7576 23.5606 97.6666 24.5909 99.2727C25.6515 100.879 27.0303 102.227 28.7273 103.318C30.4545 104.379 32.303 105.273 34.2727 106C36.2424 106.697 38.1364 107.273 39.9545 107.727L49.0455 110.091C52.0152 110.818 55.0606 111.803 58.1818 113.045C61.303 114.288 64.197 115.924 66.8636 117.955C69.5303 119.985 71.6818 122.5 73.3182 125.5C74.9849 128.5 75.8182 132.091 75.8182 136.273C75.8182 141.545 74.4545 146.227 71.7273 150.318C69.0303 154.409 65.1061 157.636 59.9545 160C54.8333 162.364 48.6364 163.545 41.3636 163.545C34.3939 163.545 28.3636 162.439 23.2727 160.227C18.1818 158.015 14.197 154.879 11.3182 150.818C8.43939 146.727 6.84848 141.879 6.54545 136.273H20.6364C20.9091 139.636 22 142.439 23.9091 144.682C25.8485 146.894 28.3182 148.545 31.3182 149.636C34.3485 150.697 37.6667 151.227 41.2727 151.227C45.2424 151.227 48.7727 150.606 51.8636 149.364C54.9848 148.091 57.4394 146.333 59.2273 144.091C61.0152 141.818 61.9091 139.167 61.9091 136.136C61.9091 133.379 61.1212 131.121 59.5455 129.364C58 127.606 55.8939 126.151 53.2273 125C50.5909 123.848 47.6061 122.833 44.2727 121.955L33.2727 118.955C25.8182 116.924 19.9091 113.939 15.5455 110C11.2121 106.061 9.04545 100.848 9.04545 94.3636C9.04545 89 10.5 84.3182 13.4091 80.3182C16.3182 76.3182 20.2576 73.2121 25.2273 71C30.197 68.7576 35.803 67.6363 42.0455 67.6363C48.3485 67.6363 53.9091 68.7424 58.7273 70.9545C63.5758 73.1667 67.3939 76.2121 70.1818 80.0909C72.9697 83.9394 74.4242 88.3636 74.5455 93.3636H61ZM116.14 68.9091H132.095L156.413 111.227H157.413L181.731 68.9091H197.686L163.913 125.455V162H149.913V125.455L116.14 68.9091ZM316.804 68.9091V162H303.895L256.576 93.7273H255.713V162H241.667V68.9091H254.667L302.031 137.273H302.895V68.9091H316.804ZM375.876 162H360.967L394.467 68.9091H410.694L444.194 162H429.285L402.967 85.8182H402.24L375.876 162ZM378.376 125.545H426.74V137.364H378.376V125.545ZM488.357 162V68.9091H521.539C528.782 68.9091 534.782 70.2273 539.539 72.8636C544.297 75.5 547.857 79.106 550.221 83.6818C552.585 88.2273 553.766 93.3485 553.766 99.0454C553.766 104.773 552.569 109.924 550.175 114.5C547.812 119.045 544.236 122.651 539.448 125.318C534.691 127.955 528.706 129.273 521.494 129.273H498.675V117.364H520.221C524.797 117.364 528.509 116.576 531.357 115C534.206 113.394 536.297 111.212 537.63 108.455C538.963 105.697 539.63 102.561 539.63 99.0454C539.63 95.5303 538.963 92.4091 537.63 89.6818C536.297 86.9545 534.191 84.8182 531.312 83.2727C528.463 81.7273 524.706 80.9545 520.039 80.9545H502.403V162H488.357ZM651.725 93.3636C651.24 89.0606 649.24 85.7273 645.725 83.3636C642.21 80.9697 637.786 79.7727 632.452 79.7727C628.634 79.7727 625.331 80.3788 622.543 81.5909C619.755 82.7727 617.589 84.4091 616.043 86.5C614.528 88.5606 613.77 90.9091 613.77 93.5454C613.77 95.7576 614.286 97.6666 615.316 99.2727C616.376 100.879 617.755 102.227 619.452 103.318C621.18 104.379 623.028 105.273 624.998 106C626.967 106.697 628.861 107.273 630.68 107.727L639.77 110.091C642.74 110.818 645.786 111.803 648.907 113.045C652.028 114.288 654.922 115.924 657.589 117.955C660.255 119.985 662.407 122.5 664.043 125.5C665.71 128.5 666.543 132.091 666.543 136.273C666.543 141.545 665.18 146.227 662.452 150.318C659.755 154.409 655.831 157.636 650.68 160C645.558 162.364 639.361 163.545 632.089 163.545C625.119 163.545 619.089 162.439 613.998 160.227C608.907 158.015 604.922 154.879 602.043 150.818C599.164 146.727 597.573 141.879 597.27 136.273H611.361C611.634 139.636 612.725 142.439 614.634 144.682C616.573 146.894 619.043 148.545 622.043 149.636C625.073 150.697 628.392 151.227 631.998 151.227C635.967 151.227 639.498 150.606 642.589 149.364C645.71 148.091 648.164 146.333 649.952 144.091C651.74 141.818 652.634 139.167 652.634 136.136C652.634 133.379 651.846 131.121 650.27 129.364C648.725 127.606 646.619 126.151 643.952 125C641.316 123.848 638.331 122.833 634.998 121.955L623.998 118.955C616.543 116.924 610.634 113.939 606.27 110C601.937 106.061 599.77 100.848 599.77 94.3636C599.77 89 601.225 84.3182 604.134 80.3182C607.043 76.3182 610.983 73.2121 615.952 71C620.922 68.7576 626.528 67.6363 632.77 67.6363C639.073 67.6363 644.634 68.7424 649.452 70.9545C654.301 73.1667 658.119 76.2121 660.907 80.0909C663.695 83.9394 665.149 88.3636 665.27 93.3636H651.725ZM714.047 162V68.9091H772.411V81H728.093V109.364H769.365V121.409H728.093V149.909H772.956V162H714.047Z" fill="white"/>
<line x1="322.51" y1="290.012" x2="423.51" y2="3.01237" stroke="#0A0A0A" stroke-width="18"/>
<line x1="479" y1="87.5" x2="513" y2="87.5" stroke="#0A0A0A" stroke-width="13"/>
<line x1="700" y1="87.5" x2="734" y2="87.5" stroke="#0A0A0A" stroke-width="13"/>
<line x1="116" y1="87.5" x2="150" y2="87.5" stroke="#0A0A0A" stroke-width="13"/>
<line x1="316.291" y1="299.32" x2="418.291" y2="13.3204" stroke="white" stroke-width="10"/>
</svg>
